<svg xmlns="http://www.w3.org/2000/svg" width="23.442" height="19.862" viewBox="0 0 23.442 19.862">
  <g id="about" transform="translate(-0.012 19.862)">
    <g id="Combined_Shape" data-name="Combined Shape" transform="translate(0.012)" fill="none" stroke-miterlimit="10">
      <path d="M.046-9.95H0V0L11.675-9.912h.046v-9.95Zm11.675,0L23.442,0V-9.95Z" stroke="none"/>
      <path d="M 11.22070026397705 -18.78173637390137 L 0.5 -9.680299758911133 L 0.5 -1.080364227294922 L 11.22070026397705 -10.181809425354 L 11.22070026397705 -18.78173637390137 M 13.08231258392334 -9.450400352478027 L 22.94230079650879 -1.080312728881836 L 22.94230079650879 -9.450400352478027 L 13.08231258392334 -9.450400352478027 M 11.72070026397705 -19.86210060119629 L 11.72070026397705 -9.950400352478027 L 11.72070026397705 -9.911700248718262 L 11.67511081695557 -9.911700248718262 L 0 0 L 0 -9.950400352478027 L 0.04557991027832031 -9.950400352478027 L 11.72070026397705 -19.86210060119629 Z M 11.72070026397705 -9.950400352478027 L 23.44230079650879 -9.950400352478027 L 23.44230079650879 0 L 11.72070026397705 -9.950400352478027 Z" stroke="none" fill="#fff"/>
    </g>
    <g id="Rectangle_Copy_6" data-name="Rectangle Copy 6" transform="translate(11.732 -9.647)" fill="none" stroke-miterlimit="10">
      <path d="M11.721,0,0-10.215V0Z" stroke="none"/>
      <path d="M 10.38619232177734 -0.4999989867210388 L 0.5000050663948059 -9.115801811218262 L 0.5000050663948059 -0.4999989867210388 L 10.38619232177734 -0.4999989867210388 M 11.72093486785889 1.02676392543799e-06 L 5.049743776908144e-06 1.02676392543799e-06 L 5.049743776908144e-06 -10.21477890014648 L 11.72093486785889 1.02676392543799e-06 Z" stroke="none" fill="#979797"/>
    </g>
  </g>
</svg>
