<?xml version="1.0" encoding="UTF-8"?>
<svg width="88px" height="101px" viewBox="0 0 88 101" version="1.1" xmlns="http://www.w3.org/2000/svg" xmlns:xlink="http://www.w3.org/1999/xlink">
    <!-- Generator: Sketch 60 (88103) - https://sketch.com -->
    <title>noun_article_974803</title>
    <desc>Created with Sketch.</desc>
    <g id="Page-1" stroke="none" stroke-width="1" fill="none" fill-rule="evenodd">
        <g id="noun_article_974803" fill="#000000" fill-rule="nonzero">
            <g id="Group">
                <path d="M5.51,0 L60.4,0 C61.1003178,0.46079216 61.7685229,0.968627998 62.4,1.52 C70.4,9.52 78.4,17.5 86.4,25.46 C87.3281366,26.334147 87.8346462,27.5658033 87.79,28.84 C87.79,50.2866667 87.79,71.7333333 87.79,93.18 C87.79,97.41 85.22,100.01 81,100.01 L7,100.01 C2.77,100.01 0.22,97.44 0.21,93.19 C0.21,75.71 0.21,58.2333333 0.21,40.76 C0.21,29.3666667 0.21,17.9766667 0.21,6.59 C0.0394657422,3.51515619 2.15169003,0.781188459 5.17,0.17 C5.28881363,0.125029487 5.40273541,0.0680685985 5.51,0 Z M56.51,6.26945869 L55.8,6.26945869 L9.8,6.26945869 C9.44234997,6.26400974 9.08560313,6.30776171 8.74,6.4 C7.2,6.84 6.47,8.01 6.47,9.94 C6.47,30.12 6.47,50.3 6.47,70.48 C6.47,77.1466667 6.47,83.7866667 6.47,90.4 C6.38928907,91.3259146 6.72291795,92.2400121 7.38108552,92.8962495 C8.03925309,93.552487 8.9543264,93.8834299 9.88,93.8 L77.88,93.8 C80.34,93.8 81.55,92.61 81.55,90.16 C81.55,70.8933333 81.55,51.6233333 81.55,32.35 L81.55,31.24 L60.1,31.24 C57.7066667,31.24 56.5066667,30.0366667 56.5,27.63 C56.5,23.4633333 56.5,19.2966667 56.5,15.13 C56.51,12.21 56.51,9.29 56.51,6.26945869 Z M62.79,25 L76.79,25 L62.79,11 L62.79,25 Z" id="Shape"></path>
                <path d="M44.09,62.52 C51.3166667,62.52 58.5433333,62.52 65.77,62.52 C67.4009312,62.4510696 68.8058775,63.6587124 68.9826688,65.2814979 C69.15946,66.9042834 68.0475144,68.3861242 66.44,68.67 C66.052891,68.7281182 65.6610235,68.748214 65.27,68.73 L22.6,68.73 C22.2419037,68.7416374 21.883528,68.7181923 21.53,68.66 C19.9189805,68.3773419 18.804744,66.8916734 18.9844985,65.2659527 C19.164253,63.640232 20.5761443,62.4338752 22.21,62.51 C27.32,62.51 32.43,62.51 37.54,62.51 L44.08,62.51 L44.09,62.52 Z" id="Path"></path>
                <path d="M43.9,81.25 L22.51,81.25 C20.44,81.25 19.01,79.98 19.01,78.14 C19.01,76.3 20.41,75 22.5,75 L65.5,75 C67.56,75 69,76.29 69,78.13 C69,79.97 67.59,81.24 65.5,81.24 L43.9,81.24 L43.9,81.25 Z" id="Path"></path>
                <path d="M44,50 L65.17,50 C65.590951,49.9814862 66.012713,50.0015701 66.43,50.06 C68.0093763,50.3471353 69.108296,51.792467 68.9627278,53.3911183 C68.8171595,54.9897696 67.4752626,56.2128481 65.87,56.210005 C62.35,56.210005 58.87,56.210005 55.32,56.210005 L22.42,56.210005 C19.95,56.210005 18.42,54.12 19.22,51.97 C19.7282775,50.6794057 21.0165957,49.8691427 22.4,49.97 L44,49.97 L44,50 Z" id="Path"></path>
                <path d="M31.49,37.52 L40.49,37.52 C42.58,37.52 44,38.79 43.9900525,40.63 C43.98,42.47 42.58,43.74 40.49,43.74 L22.41,43.74 C21.2393658,43.8339517 20.1151405,43.2625888 19.5010033,42.2615659 C18.886866,41.260543 18.886866,39.999457 19.5010033,38.9984341 C20.1151405,37.9974112 21.2393658,37.4260483 22.41,37.52 C25.44,37.509965 28.46,37.52 31.49,37.52 Z" id="Path"></path>
            </g>
        </g>
    </g>
</svg>