<svg xmlns="http://www.w3.org/2000/svg" width="16.669" height="22.002" viewBox="0 0 16.669 22.002">
  <path id="careers" d="M7.527,22h0a7.441,7.441,0,0,1-1.646-.185H5.853A7.519,7.519,0,0,1,.176,12.875L1.411,7.315A1.953,1.953,0,0,1,3.284,5.808a1.8,1.8,0,0,1,.362.037l.647-2.911a1.908,1.908,0,0,1,2.3-1.471,1.794,1.794,0,0,1,1.058.647l.118-.589A1.887,1.887,0,0,1,8.618.315,1.8,1.8,0,0,1,9.631,0a1.864,1.864,0,0,1,.427.051A1.886,1.886,0,0,1,11.264.9a1.8,1.8,0,0,1,.265,1.441l-.029.118a1.975,1.975,0,0,1,.833-.188,2.036,2.036,0,0,1,.4.041A1.919,1.919,0,0,1,14.177,4.61l-.266,1.206a1.675,1.675,0,0,1,.8-.194,2.067,2.067,0,0,1,.432.047,1.886,1.886,0,0,1,1.206.853,1.8,1.8,0,0,1,.265,1.441L14.824,16.11a7.564,7.564,0,0,1-3.295,4.706A7.33,7.33,0,0,1,7.527,22ZM3.253,6.549a1.162,1.162,0,0,0-1.136.914L.881,13.022A6.805,6.805,0,0,0,6,21.082h.03a6.771,6.771,0,0,0,8.059-5.148l1.794-8.088a1.049,1.049,0,0,0-.147-.883A1.2,1.2,0,0,0,15,6.433a.973.973,0,0,0-.28-.041,1.087,1.087,0,0,0-.6.187,1.2,1.2,0,0,0-.529.735l-1.176,5.5a.367.367,0,0,1-.38.3.45.45,0,0,1-.062,0,.367.367,0,0,1-.293-.441L12.911,7.11,13.5,4.433a1.183,1.183,0,0,0-.144-.894,1.164,1.164,0,0,0-.739-.518,1.248,1.248,0,0,0-.277-.032,1.147,1.147,0,0,0-1.134.914l-1.5,6.619a.362.362,0,0,1-.379.3.45.45,0,0,1-.062,0,.361.361,0,0,1-.251-.161.339.339,0,0,1-.044-.28l1.853-8.206a1.046,1.046,0,0,0-.148-.882,1.2,1.2,0,0,0-.735-.53.964.964,0,0,0-.278-.04,1.089,1.089,0,0,0-.6.188,1.2,1.2,0,0,0-.529.735L6.823,9.257a.366.366,0,0,1-.378.3.445.445,0,0,1-.063,0,.359.359,0,0,1-.25-.16.338.338,0,0,1-.044-.281L7.323,3.551A1.189,1.189,0,0,0,6.44,2.138a1.25,1.25,0,0,0-.276-.031,1.148,1.148,0,0,0-1.135.914L4.352,6.051a2.146,2.146,0,0,1,.559.589A1.8,1.8,0,0,1,5.176,8.08l-.765,3.471a5.112,5.112,0,0,1,1.824,5.029.367.367,0,0,1-.379.3.445.445,0,0,1-.063,0,.373.373,0,0,1-.294-.441,4.356,4.356,0,0,0-1.735-4.412l-.029-.03-.03-.03-.03-.03a.028.028,0,0,1-.03-.029.029.029,0,0,1-.029-.03V11.64l.765-3.677a1.048,1.048,0,0,0-.148-.882,1.043,1.043,0,0,0-.5-.441.431.431,0,0,0-.1-.032.938.938,0,0,1-.1-.027A1.25,1.25,0,0,0,3.253,6.549Z" transform="translate(0.001 0)" fill="#fff"/>
</svg>
