<svg xmlns="http://www.w3.org/2000/svg" width="20.001" height="18" viewBox="0 0 20.001 18">
  <path id="checked" d="M9.065,18h0A9.04,9.04,0,0,1,.274,11.2,8.9,8.9,0,0,1,1.279,4.4,8.987,8.987,0,0,1,6.855.27,9.15,9.15,0,0,1,8.832,0l.227,0A9.061,9.061,0,0,1,14.4,1.733a.694.694,0,1,1-.821,1.111A7.656,7.656,0,0,0,9.065,1.382,7.737,7.737,0,0,0,7.2,1.611a7.622,7.622,0,0,0-4.735,3.5,7.523,7.523,0,0,0-.845,5.748A7.647,7.647,0,0,0,9.05,16.619a7.8,7.8,0,0,0,1.881-.232,7.626,7.626,0,0,0,4.737-3.5,7.514,7.514,0,0,0,.842-5.74.693.693,0,0,1,.149-.721.7.7,0,0,1,.718-.181.7.7,0,0,1,.477.563,8.887,8.887,0,0,1-1,6.788,8.989,8.989,0,0,1-5.579,4.129A9.141,9.141,0,0,1,9.065,18Zm.7-6a.7.7,0,0,1-.464-.176L5.344,8.361a.7.7,0,0,1,.465-1.214.7.7,0,0,1,.466.176l3.443,3.014c1.227-1.285,2.793-2.967,4.308-4.593,1.7-1.827,3.459-3.714,4.765-5.07A.7.7,0,0,1,19.264.45H19.3a.692.692,0,0,1,.491,1.184C18.511,2.964,16.75,4.858,15.047,6.69s-3.483,3.745-4.784,5.1A.7.7,0,0,1,9.761,12Z" transform="translate(0.002 0)" fill="#002a36"/>
</svg>
