<svg xmlns="http://www.w3.org/2000/svg" width="19" height="19" viewBox="0 0 19 19">
  <path id="instagram" d="M9.5,19c-2.567,0-2.9-.011-3.918-.057C2.126,18.785.215,16.874.057,13.417.011,12.4,0,12.068,0,9.5S.011,6.593.058,5.583C.216,2.126,2.127.215,5.584.057,6.6.011,6.933,0,9.5,0s2.908.011,3.918.058c3.458.159,5.369,2.07,5.525,5.526C18.989,6.6,19,6.933,19,9.5s-.011,2.908-.058,3.917c-.156,3.456-2.066,5.367-5.525,5.526C12.4,18.989,12.068,19,9.5,19Zm0-17.287c-2.548,0-2.847.009-3.839.054-2.574.118-3.775,1.319-3.894,3.894C1.721,6.67,1.712,6.972,1.712,9.5c0,2.551.01,2.85.055,3.839.119,2.576,1.32,3.778,3.894,3.9.989.045,1.287.055,3.839.055s2.85-.01,3.839-.055c2.574-.118,3.775-1.319,3.894-3.894.045-.992.054-1.291.054-3.839,0-2.578-.009-2.847-.054-3.839-.119-2.576-1.32-3.777-3.894-3.894C12.35,1.722,12.052,1.713,9.5,1.713Zm0,12.667A4.879,4.879,0,1,1,14.378,9.5,4.884,4.884,0,0,1,9.5,14.379Zm0-8.046A3.167,3.167,0,1,0,12.667,9.5,3.171,3.171,0,0,0,9.5,6.333Zm5.071-.764A1.14,1.14,0,1,1,15.71,4.43,1.141,1.141,0,0,1,14.571,5.569Z" transform="translate(0 0)" fill="#002a36"/>
</svg>
