<svg xmlns="http://www.w3.org/2000/svg" width="21.944" height="16.904" viewBox="0 0 21.944 16.904">
  <g id="mac" transform="translate(-0.028 -0.202)">
    <g id="Group">
      <path id="Path" d="M1.413,2.135.172,2.654a.3.3,0,0,0,.113.577H8.972a.3.3,0,0,0,.113-.577L7.872,2.135V0H1.413Z" transform="translate(6.231 13.875)" fill="#fff"/>
      <path id="Shape" d="M20.815,12.981H1.129a1.14,1.14,0,0,1-.536-.144,1.523,1.523,0,0,1-.254-.2A.777.777,0,0,1,.2,12.461a.152.152,0,0,1-.028-.043.152.152,0,0,0-.028-.043C.112,12.317.085,12.26.057,12.2a.214.214,0,0,0-.014-.072.218.218,0,0,1-.014-.073A.582.582,0,0,1,0,11.827V1.154A1.474,1.474,0,0,1,.057.807C.07.779.084.745.1.711S.126.636.141.606A.593.593,0,0,1,.254.433.823.823,0,0,1,.592.144L.6.141A1.347,1.347,0,0,1,.789.058,1.41,1.41,0,0,1,1.129,0H20.815a1.133,1.133,0,0,1,.818.347.679.679,0,0,1,.076.1.39.39,0,0,0,.036.048,1.367,1.367,0,0,1,.2.663V11.827a.633.633,0,0,1-.029.23.77.77,0,0,1-.129.368.613.613,0,0,0-.04.065l-.006.006-.079.081a.292.292,0,0,1-.082.092c-.019.016-.038.033-.058.053a.594.594,0,0,0-.086.058.6.6,0,0,1-.083.057A1.07,1.07,0,0,1,20.815,12.981ZM1.495,1.443v10.1H20.42V1.443Z" transform="translate(0.028 0.202)" fill="#fff"/>
    </g>
  </g>
</svg>
