<svg id="phone" xmlns="http://www.w3.org/2000/svg" width="10.439" height="18.171" viewBox="0 0 10.439 18.171">
  <path id="Shape" d="M9.368,17.643H.584A.587.587,0,0,1,0,17.054V.589A.587.587,0,0,1,.584,0H9.372a.585.585,0,0,1,.58.589V17.054A.587.587,0,0,1,9.368,17.643Zm-4.394-2.29a.919.919,0,1,0,.912.919A.916.916,0,0,0,4.974,15.352ZM.612,1.181V14.927H9.333V1.181Z" transform="translate(0.487 0.528)" fill="#fff"/>
  <path id="Path" d="M.413.637H.01L.019.646V.036a.146.146,0,0,0,0-.025h0L.01.018h.4L.4.009V.567C.4.593.4.619.4.645h0a.009.009,0,0,0,.018,0V.088c0-.026,0-.052,0-.078h0A.009.009,0,0,0,.413,0H.01A.009.009,0,0,0,0,.009V.567C0,.593,0,.619,0,.645H0A.009.009,0,0,0,.01.655h.4A.009.009,0,0,0,.413.637Z" transform="translate(0.604 1.187)" fill="#fff"/>
  <path id="Path-2" data-name="Path" d="M1.111,1.84a.725.725,0,0,1,0-1.449.725.725,0,0,1,0,1.449c-.254.008-.254.408,0,.4A1.126,1.126,0,0,0,1.826.254,1.123,1.123,0,0,0,.02,1.331a1.127,1.127,0,0,0,1.091.909A.2.2,0,0,0,1.111,1.84Z" transform="translate(4.09 15.471)" fill="#fff"/>
  <path id="Path-3" data-name="Path" d="M9.622,0H1.138A1.3,1.3,0,0,0,.352.138a.89.89,0,0,0-.345.8V16.269c0,.368-.016.737,0,1.105a.8.8,0,0,0,.786.793h7.98c.266,0,.532,0,.8,0a.81.81,0,0,0,.837-.8c.016-.436,0-.877,0-1.313V5.547c0-1.562.008-3.123,0-4.685A.817.817,0,0,0,9.622,0c-.254-.012-.254.388,0,.4.333.016.389.288.389.553V16.946c0,.136.008.276,0,.416-.016.316-.25.408-.516.408H.912c-.262,0-.5-.1-.508-.412,0-.14,0-.284,0-.424V.951C.4.69.467.426.793.41c.583-.036,1.183,0,1.77,0H9.626A.2.2,0,0,0,9.622,0Z" transform="translate(0 0)" fill="#fff"/>
</svg>
