<?xml version="1.0" encoding="utf-8"?>
<svg width="455px" height="644px" viewBox="0 0 455 644" version="1.1" xmlns:xlink="http://www.w3.org/1999/xlink" xmlns="http://www.w3.org/2000/svg">
  <desc>Created with Lunacy</desc>
  <defs>
    <path d="M483.369 69.2603L649.478 99.5925L650.492 266.318L649.369 267.26L650.499 267.467L650.505 268.445L651.462 267.642L815.478 297.593L816.47 460.818L812.369 464.26L816.496 465.014L816.505 466.445L817.904 465.271L978.478 494.593L979.505 663.445L1062.05 594.185L1061.02 425.332L899.037 395.754L898.019 228.332L733.04 198.206L732.019 30.3322L565.91 -1.52588e-05L483.369 69.2603ZM553.297 181.081L387.188 150.749L469.729 81.4888L635.839 111.821L636.859 279.695L801.839 309.821L802.857 477.242L964.839 506.821L965.865 675.674L883.324 744.934L882.297 576.081L721.724 546.76L720.324 547.934L720.315 546.503L716.188 545.749L720.29 542.307L719.297 379.081L555.281 349.131L554.324 349.934L554.318 348.955L553.188 348.749L554.311 347.807L553.297 181.081ZM457.117 262.57L291.008 232.238L373.549 162.977L539.658 193.31L540.679 361.184L705.658 391.31L706.676 558.731L868.658 588.31L869.685 757.163L787.144 826.423L786.117 657.57L625.543 628.249L624.144 629.423L624.135 627.991L620.008 627.238L624.109 623.796L623.117 460.57L459.101 430.62L458.144 431.423L458.138 430.444L457.008 430.238L458.131 429.295L457.117 262.57ZM358.47 344.059L192.361 313.727L274.902 244.466L441.011 274.798L442.032 442.673L607.011 472.798L608.03 640.22L770.011 669.798L771.038 838.651L688.497 907.912L687.47 739.059L526.896 709.737L525.497 710.912L525.488 709.48L521.361 708.727L525.463 705.285L524.47 542.059L360.454 512.109L359.497 512.912L359.491 511.933L358.361 511.727L359.484 510.784L358.47 344.059ZM96.1805 395.215L262.29 425.548L263.304 592.273L262.18 593.215L263.311 593.422L263.317 594.4L264.273 593.597L428.29 623.548L429.282 786.773L425.18 790.215L429.308 790.969L429.317 792.4L430.716 791.226L591.29 820.548L592.317 989.4L674.858 920.14L673.831 751.287L511.849 721.709L510.831 554.287L345.852 524.161L344.831 356.287L178.722 325.955L96.1805 395.215ZM166.109 507.036L5.99027e-06 476.704L82.5412 407.444L248.65 437.776L249.671 605.65L414.65 635.776L415.669 803.197L577.65 832.776L578.677 1001.63L496.136 1070.89L495.109 902.036L334.536 872.715L333.136 873.889L333.127 872.458L329 871.704L333.102 868.262L332.109 705.036L168.093 675.086L167.136 675.889L167.13 674.91L166 674.704L167.123 673.762L166.109 507.036Z" transform="matrix(-1 0 0 1 1489.046 687.0554)" id="path_1" />
    <path d="M483.369 69.2603L649.478 99.5925L650.503 268.148L650.369 268.26L650.504 268.285L650.505 268.445L650.661 268.314L816.478 298.593L817.497 466.153L817.369 466.26L817.498 466.284L817.505 467.445L818.64 466.492L983.478 496.593L984.505 665.445L1067.05 596.185L1066.02 427.332L900.039 397.024L899.019 229.332L733.045 199.025L732.019 30.3322L565.91 -1.52588e-05L483.369 69.2603ZM553.297 181.081L387.188 150.749L469.729 81.4888L635.839 111.821L636.864 280.513L802.839 310.821L803.858 478.512L969.839 508.821L970.865 677.674L888.324 746.934L887.297 578.081L722.46 547.981L721.324 548.934L721.317 547.773L721.188 547.749L721.316 547.641L720.297 380.081L554.481 349.803L554.324 349.934L554.323 349.774L554.188 349.749L554.322 349.636L553.297 181.081ZM457.117 262.57L291.008 232.238L373.549 162.977L539.658 193.31L540.684 362.002L706.658 392.31L707.678 560.001L873.658 590.31L874.685 759.163L792.144 828.423L791.117 659.57L626.279 629.47L625.144 630.423L625.137 629.261L625.008 629.238L625.136 629.13L624.117 461.57L458.301 431.291L458.144 431.423L458.143 431.262L458.008 431.238L458.142 431.125L457.117 262.57ZM358.47 344.059L192.361 313.727L274.902 244.466L441.011 274.798L442.037 443.491L608.011 473.798L609.031 641.49L775.011 671.798L776.038 840.651L693.497 909.912L692.47 741.059L527.633 710.959L526.497 711.912L526.49 710.75L526.361 710.727L526.489 710.619L525.47 543.059L359.654 512.78L359.497 512.912L359.496 512.751L359.361 512.727L359.495 512.614L358.47 344.059ZM96.1805 395.215L262.29 425.548L263.315 594.103L263.18 594.215L263.316 594.24L263.317 594.4L263.473 594.269L429.29 624.548L430.309 792.108L430.18 792.215L430.31 792.239L430.317 793.4L431.452 792.448L596.29 822.548L597.317 991.4L679.858 922.14L678.831 753.287L512.851 722.979L511.831 555.287L345.857 524.98L344.831 356.287L178.722 325.955L96.1805 395.215ZM166.109 507.036L5.99027e-06 476.704L82.5412 407.444L248.65 437.776L249.676 606.468L415.65 636.776L416.67 804.467L582.65 834.776L583.677 1003.63L501.136 1072.89L500.109 904.036L335.272 873.936L334.136 874.889L334.129 873.728L334 873.704L334.128 873.596L333.109 706.036L167.293 675.758L167.136 675.889L167.135 675.729L167 675.704L167.134 675.591L166.109 507.036Z" transform="matrix(-1 0 0 1 1067.046 0)" id="path_2" />
    <clipPath id="clip_1">
      <use xlink:href="#path_1" />
    </clipPath>
    <clipPath id="clip_2">
      <use xlink:href="#path_2" />
    </clipPath>
  </defs>
  <g id="Group-10">
    <g id="Combined-Shape">
      <g clip-path="url(#clip_1)">
        <use xlink:href="#path_1" fill="none" stroke="#000000" stroke-opacity="0.8287528" stroke-width="3" />
      </g>
    </g>
    <g id="Combined-Shape-Copy">
      <g clip-path="url(#clip_2)">
        <use xlink:href="#path_2" fill="none" stroke="#002A36" stroke-width="2" />
      </g>
    </g>
  </g>
</svg>