<?xml version="1.0" encoding="utf-8"?>
<svg width="987px" height="592px" viewBox="0 0 987 592" version="1.1" xmlns:xlink="http://www.w3.org/1999/xlink" xmlns="http://www.w3.org/2000/svg">
  <desc>Created with Lunacy</desc>
  <defs>
    <path d="M517.588 74.2053L695.506 106.643L696.546 285.649L695.645 286.405L696.551 286.57L696.556 287.491L697.458 286.735L873.563 318.842L874.61 499.132L874.336 499.362L874.611 499.412L874.613 499.69L874.886 499.462L1052.25 531.799L1053.3 712.648L1141.74 638.442L1140.69 457.594L963.046 425.207L961.997 244.637L784.985 212.365L783.941 32.4382L606.022 0.000280068L517.588 74.2053ZM592.518 193.954L414.6 161.516L503.034 87.3108L680.952 119.749L681.997 299.672L859.007 331.944L860.055 512.513L1037.7 544.901L1038.75 725.749L950.314 799.954L949.264 619.106L771.895 586.768L771.623 586.997L771.621 586.718L771.346 586.668L771.62 586.439L770.573 406.149L594.473 374.043L593.568 374.802L593.563 373.877L592.655 373.711L593.557 372.954L592.518 193.954ZM489.528 281.257L311.61 248.819L400.044 174.614L577.962 207.051L579.007 386.978L756.019 419.251L757.067 599.82L934.71 632.208L935.76 813.056L847.326 887.261L846.276 706.413L668.907 674.075L668.635 674.304L668.633 674.025L668.358 673.975L668.631 673.745L667.585 493.456L491.479 461.348L490.578 462.105L490.573 461.183L489.666 461.018L490.567 460.262L489.528 281.257ZM383.897 368.563L205.979 336.125L294.413 261.92L472.331 294.358L473.376 474.285L650.388 506.557L651.436 687.127L829.079 719.514L830.129 900.362L741.695 974.567L740.645 793.719L563.276 761.382L563.004 761.61L563.002 761.332L562.727 761.281L563 761.052L561.954 580.762L385.848 548.655L384.947 549.411L384.942 548.49L384.035 548.324L384.936 547.569L383.897 368.563ZM102.991 423.436L280.909 455.874L281.948 634.874L281.045 635.631L281.953 635.797L281.959 636.722L282.863 635.963L458.964 668.069L460.01 848.359L459.737 848.588L460.012 848.638L460.013 848.917L460.286 848.688L637.655 881.026L638.705 1061.87L727.139 987.669L726.089 806.821L548.446 774.433L547.398 593.864L370.388 561.592L369.343 381.669L191.425 349.231L102.991 423.436ZM177.919 543.177L0.0003182 510.739L88.4345 436.534L266.353 468.971L267.397 648.898L444.409 681.171L445.458 861.741L623.101 894.129L624.151 1074.98L535.716 1149.18L534.667 968.334L357.297 935.996L357.025 936.224L357.024 935.946L356.748 935.896L357.022 935.666L355.975 755.376L179.87 723.268L178.968 724.025L178.963 723.103L178.057 722.938L178.958 722.182L177.919 543.177Z" transform="matrix(-0.6427875 -0.7660443 -0.7660443 0.6427875 1614.219 400.9639)" id="path_1" />
    <clipPath id="clip_1">
      <use xlink:href="#path_1" />
    </clipPath>
  </defs>
  <g id="img-flow-bg">
    <g clip-path="url(#clip_1)">
      <use xlink:href="#path_1" fill="none" stroke="#001D25" stroke-width="3" />
    </g>
  </g>
</svg>