<?xml version="1.0" encoding="utf-8"?>
<svg width="165px" height="822px" viewBox="0 0 165 822" version="1.1" xmlns:xlink="http://www.w3.org/1999/xlink" xmlns="http://www.w3.org/2000/svg">
  <desc>Created with Lunacy</desc>
  <defs>
    <path d="M370.591 53.0778L497.917 76.3562L498.721 204.123L497.595 205.068L498.729 205.275L498.732 205.79L499.235 205.368L624.921 228.346L625.714 354.282L623.598 356.057L625.727 356.446L625.736 357.78L627.039 356.686L750.924 379.335L750.923 379.336L751.738 508.77L814.993 455.692L814.178 326.258L814.181 326.256L688.983 303.367L688.176 175.269L561.984 152.197L561.172 23.2786L433.847 0.000160217L370.591 53.0778ZM688.587 305.042L750.925 379.334L750.924 379.335L688.585 305.043L688.587 305.042ZM424.177 138.805L296.851 115.527L360.107 62.4491L487.432 85.7275L488.244 214.646L614.436 237.717L615.243 365.818L740.439 388.708L741.254 518.141L677.998 571.219L677.184 441.785L553.298 419.136L551.996 420.229L551.987 418.896L549.858 418.507L551.974 416.731L551.181 290.795L425.495 267.816L424.992 268.239L424.988 267.724L423.855 267.517L424.981 266.572L424.177 138.805ZM350.437 201.254L223.111 177.976L286.366 124.898L413.692 148.176L414.504 277.095L540.696 300.166L541.503 428.267L666.699 451.157L667.514 580.59L604.258 633.668L603.443 504.234L479.558 481.585L478.256 482.678L478.247 481.345L476.118 480.956L478.234 479.18L477.441 353.244L351.755 330.265L351.252 330.688L351.248 330.173L350.115 329.966L351.241 329.021L350.437 201.254ZM274.806 263.703L147.48 240.425L210.736 187.347L338.061 210.625L338.873 339.544L465.065 362.615L465.872 490.716L591.068 513.605L591.883 643.039L528.627 696.116L527.812 566.683L403.927 544.033L402.625 545.127L402.616 543.794L400.487 543.404L402.603 541.629L401.81 415.693L276.124 392.714L275.621 393.137L275.618 392.622L274.484 392.415L275.61 391.47L274.806 263.703ZM73.7401 302.874L201.066 326.152L201.87 453.918L200.744 454.863L201.878 455.071L201.881 455.586L202.384 455.163L328.07 478.142L328.863 604.079L326.747 605.853L328.876 606.243L328.885 607.576L330.188 606.482L454.073 629.132L454.888 758.565L518.143 705.488L517.329 576.054L392.132 553.165L391.325 425.064L265.133 401.993L264.321 273.074L136.996 249.796L73.7401 302.874ZM127.326 388.601L7.28667e-05 365.322L63.2555 312.245L190.581 335.523L191.393 464.442L317.585 487.513L318.392 615.614L443.588 638.503L444.403 767.937L381.148 821.014L380.333 691.581L256.447 668.931L255.145 670.024L255.136 668.692L253.007 668.302L255.123 666.527L254.33 540.591L128.644 517.612L128.141 518.034L128.137 517.52L127.004 517.312L128.13 516.367L127.326 388.601Z" transform="translate(-649.9941 0)" id="path_1" />
    <clipPath id="clip_1">
      <use xlink:href="#path_1" />
    </clipPath>
  </defs>
  <g id="img-advantage-bg">
    <g clip-path="url(#clip_1)">
      <use xlink:href="#path_1" fill="none" stroke="#000000" stroke-width="2" />
    </g>
  </g>
</svg>