<?xml version="1.0" encoding="utf-8"?>
<svg width="454px" height="644px" viewBox="0 0 454 644" version="1.1" xmlns:xlink="http://www.w3.org/1999/xlink" xmlns="http://www.w3.org/2000/svg">
  <desc>Created with Lunacy</desc>
  <defs>
    <path d="M483.369 69.2603L649.478 99.5925L650.492 266.318L649.369 267.26L650.499 267.467L650.505 268.445L651.462 267.642L815.478 297.593L816.47 460.818L812.369 464.26L816.496 465.014L816.505 466.445L817.904 465.271L978.478 494.593L979.505 663.445L1062.05 594.185L1061.02 425.332L899.037 395.754L898.019 228.332L733.04 198.206L732.019 30.3322L565.91 -1.52588e-05L483.369 69.2603ZM553.297 181.081L387.188 150.749L469.729 81.4888L635.839 111.821L636.859 279.695L801.839 309.821L802.857 477.242L964.839 506.821L965.865 675.674L883.324 744.934L882.297 576.081L721.724 546.76L720.324 547.934L720.315 546.503L716.188 545.749L720.29 542.307L719.297 379.081L555.281 349.131L554.324 349.934L554.318 348.955L553.188 348.749L554.311 347.807L553.297 181.081ZM457.117 262.57L291.008 232.238L373.549 162.977L539.658 193.31L540.679 361.184L705.658 391.31L706.676 558.731L868.658 588.31L869.685 757.163L787.144 826.423L786.117 657.57L625.543 628.249L624.144 629.423L624.135 627.991L620.008 627.238L624.109 623.796L623.117 460.57L459.101 430.62L458.144 431.423L458.138 430.444L457.008 430.238L458.131 429.295L457.117 262.57ZM358.47 344.059L192.361 313.727L274.902 244.466L441.011 274.798L442.032 442.673L607.011 472.798L608.03 640.22L770.011 669.798L771.038 838.651L688.497 907.912L687.47 739.059L526.896 709.737L525.497 710.912L525.488 709.48L521.361 708.727L525.463 705.285L524.47 542.059L360.454 512.109L359.497 512.912L359.491 511.933L358.361 511.727L359.484 510.784L358.47 344.059ZM96.1805 395.215L262.29 425.548L263.304 592.273L262.18 593.215L263.311 593.422L263.317 594.4L264.273 593.597L428.29 623.548L429.282 786.773L425.18 790.215L429.308 790.969L429.317 792.4L430.716 791.226L591.29 820.548L592.317 989.4L674.858 920.14L673.831 751.287L511.849 721.709L510.831 554.287L345.852 524.161L344.831 356.287L178.722 325.955L96.1805 395.215ZM166.109 507.036L5.99027e-06 476.704L82.5412 407.444L248.65 437.776L249.671 605.65L414.65 635.776L415.669 803.197L577.65 832.776L578.677 1001.63L496.136 1070.89L495.109 902.036L334.536 872.715L333.136 873.889L333.127 872.458L329 871.704L333.102 868.262L332.109 705.036L168.093 675.086L167.136 675.889L167.13 674.91L166 674.704L167.123 673.762L166.109 507.036Z" transform="matrix(-1 0 0 1 1489.046 687.056)" id="path_1" />
    <path d="M483.369 69.2603L649.478 99.5925L649.478 99.5934L649.479 99.5951L650.504 268.146L650.369 268.26L650.505 268.285L650.506 268.445L650.663 268.314L816.478 298.592L816.477 298.593L817.502 467.149L817.369 467.261L817.503 467.285L817.504 467.446L817.661 467.314L983.478 497.593L984.505 666.446L1067.05 597.186L1066.02 428.333L900.044 398.025L899.019 229.335L899.021 229.334L899.019 229.333L733.045 199.026L732.019 30.3328L732.02 30.3322L565.91 7.62939e-06L483.369 69.2603ZM553.297 181.082L387.188 150.75L469.729 81.4894L635.839 111.822L636.864 280.514L802.839 310.822L803.864 479.514L969.839 509.822L970.865 678.674L888.324 747.935L887.297 579.082L721.481 548.803L721.324 548.935L721.323 548.774L721.188 548.75L721.322 548.637L720.297 380.082L554.481 349.803L554.324 349.935L554.323 349.774L554.188 349.75L554.322 349.637L553.297 181.082ZM457.117 262.571L291.008 232.238L373.549 162.978L539.658 193.31L540.684 362.003L706.658 392.31L707.684 561.003L873.658 591.31L874.685 760.163L792.144 829.423L791.117 660.571L625.3 630.292L625.144 630.423L625.143 630.263L625.008 630.238L625.142 630.126L624.117 461.571L458.3 431.292L458.144 431.423L458.143 431.263L458.008 431.238L458.142 431.126L457.117 262.571ZM358.47 344.059L192.361 313.727L274.902 244.467L441.011 274.799L442.037 443.492L608.011 473.799L609.037 642.492L775.011 672.799L776.038 841.652L693.497 910.912L692.47 742.059L526.654 711.781L526.497 711.912L526.496 711.752L526.361 711.727L526.495 711.614L525.47 543.06L359.654 512.781L359.497 512.912L359.496 512.752L359.361 512.727L359.495 512.615L358.47 344.059ZM96.1804 395.216L262.29 425.548L263.315 594.103L263.18 594.216L263.315 594.24L263.316 594.401L263.473 594.269L429.29 624.548L430.315 793.103L430.18 793.216L430.315 793.241L430.316 793.401L430.473 793.269L596.29 823.548L597.317 992.401L679.858 923.141L678.831 754.288L512.857 723.98L511.831 555.288L345.857 524.98L344.831 356.288L178.722 325.956L96.1804 395.216ZM166.109 507.037L-0.000268728 476.705L82.5409 407.444L248.65 437.777L249.676 606.469L415.65 636.777L416.676 805.469L582.65 835.777L583.677 1004.63L501.136 1073.89L500.109 905.037L334.293 874.758L334.136 874.89L334.135 874.729L334 874.705L334.134 874.592L333.109 706.037L167.293 675.758L167.136 675.89L167.135 675.729L167 675.705L167.134 675.592L166.109 507.037Z" transform="matrix(-1 0 0 1 1067.046 0)" id="path_2" />
    <clipPath id="clip_1">
      <use xlink:href="#path_1" />
    </clipPath>
    <clipPath id="clip_2">
      <use xlink:href="#path_2" />
    </clipPath>
  </defs>
  <g id="Group-10-Copy" transform="matrix(-1 0 0 1 454 0)">
    <g id="Combined-Shape">
      <g clip-path="url(#clip_1)">
        <use xlink:href="#path_1" fill="none" stroke="#000000" stroke-opacity="0.8287528" stroke-width="3" />
      </g>
    </g>
    <g id="Combined-Shape-Copy">
      <g clip-path="url(#clip_2)">
        <use xlink:href="#path_2" fill="none" stroke="#002A36" stroke-width="2" />
      </g>
    </g>
  </g>
</svg>