<?xml version="1.0" encoding="utf-8"?>
<svg width="580px" height="699px" viewBox="0 0 580 699" version="1.1" xmlns:xlink="http://www.w3.org/1999/xlink" xmlns="http://www.w3.org/2000/svg">
  <desc>Created with Lunacy</desc>
  <defs>
    <path d="M488.804 66.521L652.588 100.712L657.819 267.946L658.679 267.224L821.672 301.25L826.858 467.027L825.735 467.969L826.895 468.211L826.903 468.483L827.161 468.266L989.52 502.16L994.751 669.393L1074.03 602.872L1068.8 435.639L906.171 401.69L900.949 234.729L737.164 200.538L737.07 200.616L731.865 34.1914L568.08 -1.28021e-05L488.804 66.521ZM555.326 178.978L391.542 144.787L470.818 78.2658L634.603 112.457L639.808 278.882L639.902 278.803L803.687 312.995L808.909 479.956L971.534 513.905L976.765 681.138L897.489 747.659L892.258 580.426L729.9 546.532L729.641 546.749L729.633 546.477L728.473 546.235L729.596 545.293L724.41 379.516L561.417 345.49L560.557 346.212L555.326 178.978ZM458.064 257.244L294.28 223.053L373.556 156.532L537.341 190.723L542.547 357.148L542.64 357.069L706.425 391.261L711.647 558.221L874.272 592.171L879.503 759.404L800.227 825.925L794.996 658.692L632.638 624.798L632.379 625.015L632.371 624.742L631.211 624.5L632.334 623.559L627.148 457.782L464.155 423.756L463.295 424.477L458.064 257.244ZM358.308 335.51L194.524 301.319L273.801 234.798L437.585 268.989L442.791 435.414L442.885 435.335L606.669 469.526L611.891 636.487L774.517 670.437L779.748 837.67L700.471 904.191L695.24 736.958L532.882 703.064L532.623 703.281L532.615 703.008L531.456 702.766L532.578 701.825L527.392 536.047L364.4 502.021L363.539 502.743L358.308 335.51ZM97.262 379.584L261.046 413.776L266.277 581.009L267.138 580.287L430.13 614.313L435.316 780.09L434.194 781.032L435.353 781.274L435.361 781.547L435.62 781.33L597.978 815.223L603.209 982.457L682.486 915.936L677.255 748.702L514.629 714.753L509.407 547.792L345.623 513.601L345.529 513.68L340.323 347.255L176.539 313.063L97.262 379.584ZM163.784 492.042L1.3696e-05 457.85L79.2767 391.329L243.061 425.521L248.267 591.945L248.361 591.867L412.145 626.058L417.368 793.019L579.993 826.968L585.224 994.202L505.947 1060.72L500.716 893.489L338.358 859.596L338.099 859.813L338.091 859.54L336.932 859.298L338.054 858.356L332.868 692.579L169.876 658.553L169.015 659.275L163.784 492.042Z" transform="matrix(0.9848077 -0.1736482 0.1736482 0.9848077 0 186.5029)" id="path_1" />
    <clipPath id="clip_1">
      <use xlink:href="#path_1" />
    </clipPath>
  </defs>
  <g id="img-build-main-bg-right">
    <g clip-path="url(#clip_1)">
      <use xlink:href="#path_1" fill="none" stroke="#003D4F" stroke-width="3" />
    </g>
  </g>
</svg>