<?xml version="1.0" encoding="utf-8"?>
<svg width="577px" height="701px" viewBox="0 0 577 701" version="1.1" xmlns:xlink="http://www.w3.org/1999/xlink" xmlns="http://www.w3.org/2000/svg">
  <desc>Created with Lunacy</desc>
  <defs>
    <path d="M488.766 66.5211L652.55 100.712L657.781 267.946L658.647 267.219L821.652 301.248L826.837 467.011L825.696 467.968L826.875 468.214L826.883 468.482L827.136 468.269L989.48 502.16L994.711 669.393L1073.99 602.872L1068.76 435.639L906.151 401.693L900.929 234.727L737.144 200.536L737.033 200.629L731.827 34.1914L568.043 4.06035e-05L488.766 66.5211ZM555.289 178.978L391.504 144.787L470.781 78.2657L634.565 112.457L639.771 278.895L639.883 278.802L803.667 312.993L808.89 479.96L971.495 513.905L976.726 681.138L897.449 747.659L892.218 580.426L729.875 546.535L729.621 546.748L729.613 546.481L728.434 546.234L729.575 545.277L724.39 379.514L561.385 345.485L560.52 346.211L555.289 178.978ZM458.027 257.244L294.243 223.053L373.519 156.532L537.304 190.723L542.51 357.161L542.621 357.067L706.405 391.259L711.628 558.225L874.233 592.17L879.464 759.404L800.188 825.925L794.957 658.691L632.613 624.801L632.36 625.013L632.351 624.746L631.172 624.5L632.314 623.542L627.129 457.78L464.124 423.751L463.258 424.478L458.027 257.244ZM358.311 335.514L194.527 301.322L273.804 234.801L437.586 268.992L437.587 268.991L437.587 268.993L437.588 268.993L437.587 268.994L442.792 435.417L442.888 435.336L606.673 469.528L611.896 636.495L774.485 670.437L779.716 837.67L700.44 904.191L695.209 736.958L532.88 703.071L532.627 703.282L532.619 703.016L531.424 702.767L532.581 701.796L527.396 536.049L364.405 502.023L363.544 502.746L358.313 335.516L358.311 335.514ZM97.2641 379.589L261.048 413.78L266.28 581.014L267.143 580.289L430.134 614.315L435.319 780.062L434.163 781.033L435.357 781.282L435.365 781.548L435.618 781.337L597.947 815.224L603.178 982.458L682.455 915.937L677.224 748.703L514.634 714.761L509.411 547.794L345.627 513.603L345.531 513.683L340.325 347.259L176.541 313.068L97.2641 379.589ZM163.785 492.046L0.000410544 457.854L79.2771 391.333L243.061 425.525L248.267 591.949L248.363 591.869L412.147 626.06L417.37 793.027L579.96 826.969L585.191 994.202L505.914 1060.72L500.683 893.49L338.355 859.602L338.102 859.815L338.093 859.548L336.899 859.298L338.055 858.328L332.871 692.581L169.878 658.555L169.016 659.279L163.785 492.046Z" transform="matrix(-0.9848077 -0.1736482 -0.1736482 0.9848077 576.916 186.496)" id="path_1" />
    <clipPath id="clip_1">
      <use xlink:href="#path_1" />
    </clipPath>
  </defs>
  <g id="img-build-main-bg-left">
    <g clip-path="url(#clip_1)">
      <use xlink:href="#path_1" fill="none" stroke="#003D4F" stroke-width="3" />
    </g>
  </g>
</svg>