<?xml version="1.0" encoding="utf-8"?>
<svg width="663px" height="962px" viewBox="0 0 663 962" version="1.1" xmlns:xlink="http://www.w3.org/1999/xlink" xmlns="http://www.w3.org/2000/svg">
  <desc>Created with Lunacy</desc>
  <defs>
    <path d="M483.369 69.2603L649.478 99.5925L650.492 266.318L649.369 267.26L650.499 267.467L650.505 268.445L651.462 267.642L815.478 297.593L816.47 460.818L812.369 464.26L816.496 465.014L816.505 466.445L817.904 465.271L978.478 494.593L979.505 663.445L1062.05 594.185L1061.02 425.332L899.037 395.754L898.019 228.332L733.04 198.206L732.019 30.3322L565.91 -1.52588e-05L483.369 69.2603ZM553.297 181.081L387.188 150.749L469.729 81.4888L635.839 111.821L636.859 279.695L801.839 309.821L802.857 477.242L964.839 506.821L965.865 675.674L883.324 744.934L882.297 576.081L721.724 546.76L720.324 547.934L720.315 546.503L716.188 545.749L720.29 542.307L719.297 379.081L555.281 349.131L554.324 349.934L554.318 348.955L553.188 348.749L554.311 347.807L553.297 181.081ZM457.117 262.57L291.008 232.238L373.549 162.977L539.658 193.31L540.679 361.184L705.658 391.31L706.676 558.731L868.658 588.31L869.685 757.163L787.144 826.423L786.117 657.57L625.543 628.249L624.144 629.423L624.135 627.991L620.008 627.238L624.109 623.796L623.117 460.57L459.101 430.62L458.144 431.423L458.138 430.444L457.008 430.238L458.131 429.295L457.117 262.57ZM358.47 344.059L192.361 313.727L274.902 244.466L441.011 274.798L442.032 442.673L607.011 472.798L608.03 640.22L770.011 669.798L771.038 838.651L688.497 907.912L687.47 739.059L526.896 709.737L525.497 710.912L525.488 709.48L521.361 708.727L525.463 705.285L524.47 542.059L360.454 512.109L359.497 512.912L359.491 511.933L358.361 511.727L359.484 510.784L358.47 344.059ZM96.1805 395.215L262.29 425.548L263.304 592.273L262.18 593.215L263.311 593.422L263.317 594.4L264.273 593.597L428.29 623.548L429.282 786.773L425.18 790.215L429.308 790.969L429.317 792.4L430.716 791.226L591.29 820.548L592.317 989.4L674.858 920.14L673.831 751.287L511.849 721.709L510.831 554.287L345.852 524.161L344.831 356.287L178.722 325.955L96.1805 395.215ZM166.109 507.036L5.99027e-06 476.704L82.5412 407.444L248.65 437.776L249.671 605.65L414.65 635.776L415.669 803.197L577.65 832.776L578.677 1001.63L496.136 1070.89L495.109 902.036L334.536 872.715L333.136 873.889L333.127 872.458L329 871.704L333.102 868.262L332.109 705.036L168.093 675.086L167.136 675.889L167.13 674.91L166 674.704L167.123 673.762L166.109 507.036Z" transform="matrix(-1 0 0 1 1643.047 489.0555)" id="path_1" />
    <path d="M483.37 69.2603L649.479 99.5925L650.493 266.318L649.371 267.26L650.5 267.466L650.506 268.445L651.463 267.642L815.48 297.593L816.472 460.818L812.371 464.26L816.498 465.014L816.507 466.445L817.906 465.271L978.48 494.593L979.507 663.445L1062.05 594.185L1061.02 425.332L899.039 395.754L898.021 228.332L733.041 198.206L732.02 30.3323L565.911 7.62939e-06L483.37 69.2603ZM553.299 181.081L387.19 150.749L469.731 81.4888L635.841 111.821L636.861 279.695L801.841 309.821L802.859 477.242L964.841 506.821L965.867 675.674L883.326 744.934L882.299 576.081L721.726 546.76L720.326 547.934L720.317 546.503L716.19 545.749L720.292 542.307L719.299 379.081L555.283 349.131L554.326 349.934L554.32 348.955L553.19 348.749L554.313 347.807L553.299 181.081ZM457.12 262.57L291.01 232.238L373.552 162.977L539.661 193.31L540.682 361.184L705.66 391.31L706.678 558.731L868.66 588.31L869.687 757.163L787.146 826.423L786.119 657.57L625.545 628.249L624.146 629.423L624.137 627.991L620.01 627.238L624.111 623.796L623.119 460.57L459.103 430.62L458.147 431.423L458.141 430.444L457.01 430.238L458.134 429.295L457.12 262.57ZM358.471 344.059L192.362 313.727L274.903 244.466L441.012 274.799L442.033 442.672L607.013 472.798L608.031 640.22L770.013 669.798L771.04 838.651L688.499 907.912L687.472 739.059L526.898 709.737L525.499 710.912L525.49 709.48L521.363 708.727L525.465 705.285L524.472 542.059L360.455 512.109L359.498 512.912L359.492 511.933L358.363 511.727L359.485 510.785L358.471 344.059ZM96.1823 395.215L262.292 425.548L263.305 592.273L262.182 593.215L263.312 593.422L263.318 594.4L264.275 593.597L428.292 623.548L429.284 786.773L425.182 790.215L429.31 790.969L429.319 792.4L430.718 791.226L591.292 820.548L592.319 989.4L674.86 920.14L673.833 751.287L511.851 721.709L510.833 554.287L345.854 524.161L344.833 356.287L178.724 325.955L96.1823 395.215ZM166.109 507.036L82.5408 407.443L248.65 437.775L166.109 507.036ZM166.109 507.037L-0.000577313 476.705L82.5406 407.445L166.109 507.037ZM166.111 507.037L167.125 673.761L166.002 674.704L167.132 674.91L167.138 675.89L168.096 675.086L332.111 705.036L333.104 868.262L329.002 871.704L333.129 872.458L333.138 873.889L334.537 872.715L495.111 902.036L496.138 1070.89L578.679 1001.63L577.652 832.776L415.671 803.197L414.652 635.776L249.673 605.65L248.653 437.777L166.111 507.037Z" transform="matrix(-1 0 0 1 1062.049 0)" id="path_2" />
    <clipPath id="clip_1">
      <use xlink:href="#path_1" />
    </clipPath>
    <clipPath id="clip_2">
      <use xlink:href="#path_2" />
    </clipPath>
  </defs>
  <g id="img-get-started-bg" transform="translate(-552 0)">
    <g id="Combined-Shape">
      <g clip-path="url(#clip_1)">
        <use xlink:href="#path_1" fill="none" stroke="#003D4F" stroke-width="3" />
      </g>
    </g>
    <g id="Combined-Shape-Copy">
      <g clip-path="url(#clip_2)">
        <use xlink:href="#path_2" fill="none" stroke="#003D4F" stroke-width="2" />
      </g>
    </g>
  </g>
</svg>