<?xml version="1.0" encoding="utf-8"?>
<svg width="345px" height="1073px" viewBox="0 0 345 1073" version="1.1" xmlns:xlink="http://www.w3.org/1999/xlink" xmlns="http://www.w3.org/2000/svg">
  <desc>Created with Lunacy</desc>
  <defs>
    <path d="M483.343 69.2693L649.458 99.5871L650.457 266.353L649.335 267.295L650.464 267.501L650.47 268.443L651.391 267.67L815.45 297.613L816.46 466.208L816.325 466.321L816.461 466.346L816.462 466.469L816.582 466.368L982.44 496.639L983.452 665.495L1066 596.226L1064.99 427.369L899.013 397.077L898.002 228.344L733.016 198.232L732.01 30.3177L565.895 -4.57764e-05L483.343 69.2693ZM553.283 181.086L387.167 150.769L469.719 81.4993L635.835 111.817L636.841 279.731L801.827 309.843L802.838 478.576L968.817 508.869L969.829 677.725L887.277 746.995L886.265 578.138L720.407 547.867L720.286 547.969L720.286 547.845L720.15 547.82L720.285 547.707L719.275 379.112L555.216 349.17L554.294 349.943L554.289 349.001L553.16 348.794L554.282 347.853L553.283 181.086ZM457.108 262.586L290.992 232.268L373.544 162.999L539.66 193.317L540.665 361.231L705.652 391.342L706.662 560.075L872.642 590.368L873.653 759.225L791.102 828.494L790.09 659.638L624.232 629.367L624.111 629.468L624.111 629.345L623.974 629.32L624.11 629.206L623.1 460.612L459.04 430.669L458.119 431.442L458.113 430.5L456.984 430.294L458.107 429.352L457.108 262.586ZM358.466 344.085L192.351 313.768L274.903 244.498L441.018 274.816L442.024 442.73L607.01 472.842L608.021 641.575L774.001 671.868L775.012 840.724L692.46 909.993L691.449 741.137L525.591 710.866L525.47 710.968L525.469 710.844L525.333 710.819L525.468 710.706L524.458 542.111L360.399 512.169L359.478 512.942L359.472 511.999L358.343 511.793L359.465 510.852L358.466 344.085ZM96.1756 395.267L262.291 425.585L263.29 592.351L262.168 593.293L263.297 593.499L263.303 594.441L264.224 593.668L428.283 623.611L429.293 792.205L429.158 792.319L429.294 792.344L429.295 792.467L429.415 792.366L595.273 822.636L596.285 991.493L678.837 922.224L677.825 753.367L511.846 723.074L510.835 554.341L345.849 524.229L344.843 356.315L178.728 325.998L96.1756 395.267ZM166.116 507.084L0.000335157 476.766L82.5523 407.497L248.668 437.815L249.674 605.729L414.66 635.841L415.671 804.574L581.65 834.867L582.662 1003.72L500.11 1072.99L499.098 904.136L333.24 873.865L333.12 873.966L333.119 873.843L332.983 873.818L333.118 873.705L332.108 705.11L168.049 675.167L167.127 675.941L167.122 674.998L165.993 674.792L167.115 673.851L166.116 507.084Z" transform="matrix(-1 0 0 1 1066.004 0)" id="path_1" />
    <clipPath id="clip_1">
      <use xlink:href="#path_1" />
    </clipPath>
  </defs>
  <g id="img-navigation">
    <g clip-path="url(#clip_1)">
      <use xlink:href="#path_1" fill="none" stroke="#002A36" stroke-width="3" />
    </g>
  </g>
</svg>