<?xml version="1.0" encoding="utf-8"?>
<svg width="1088px" height="1150px" viewBox="0 0 1088 1150" version="1.1" xmlns:xlink="http://www.w3.org/1999/xlink" xmlns="http://www.w3.org/2000/svg">
  <desc>Created with Lunacy</desc>
  <defs>
    <path d="M369.254 52.9815L496.234 76.0806L496.921 203.021L496.649 203.249L496.923 203.299L496.933 205.143L498.737 203.629L623.629 226.348L624.316 353.29L621.747 355.446L748.727 378.545L749.425 507.607L812.566 454.626L811.868 325.564L686.973 302.844L687.468 302.429L686.77 173.367L560.064 150.317L559.375 23.099L432.395 -1.13991e-05L369.254 52.9815ZM422.76 138.417L295.78 115.317L358.921 62.3359L485.901 85.435L486.59 212.653L613.296 235.703L613.994 364.765L613.499 365.18L738.393 387.9L739.091 516.962L675.95 569.943L675.252 440.881L548.272 417.782L550.842 415.626L550.155 288.684L425.263 265.965L423.459 267.479L423.449 265.635L423.175 265.585L423.447 265.356L422.76 138.417ZM349.286 200.752L222.306 177.653L285.447 124.672L412.427 147.771L413.116 274.989L539.822 298.038L540.52 427.101L540.03 427.512L664.914 450.229L601.773 503.211L474.793 480.112L477.368 477.951L476.681 351.02L351.789 328.301L349.985 329.815L349.975 327.971L349.701 327.921L349.973 327.692L349.286 200.752ZM273.928 263.088L146.948 239.989L210.089 187.008L337.069 210.107L337.758 337.325L464.464 360.374L465.162 489.436L464.668 489.851L589.561 512.571L590.259 641.633L527.118 694.614L526.42 565.552L399.44 542.453L402.01 540.297L401.323 413.356L276.431 390.637L274.627 392.15L274.617 390.307L274.343 390.257L274.615 390.028L273.928 263.088ZM73.4741 302.325L200.454 325.424L201.141 452.364L200.869 452.593L201.142 452.642L201.152 454.486L202.957 452.972L327.849 475.692L328.536 602.632L325.965 604.789L452.946 627.888L453.644 756.95L516.785 703.969L516.086 574.906L391.193 552.187L391.688 551.772L390.99 422.71L264.283 399.661L263.595 272.443L136.615 249.343L73.4741 302.325ZM126.98 387.76L-1.77092e-05 364.661L63.1409 311.679L190.121 334.778L190.809 461.997L317.516 485.046L318.214 614.108L317.719 614.524L442.614 637.243L443.312 766.306L380.171 819.287L379.473 690.225L252.493 667.126L255.061 664.971L254.375 538.028L129.482 515.308L127.678 516.822L127.668 514.978L127.395 514.929L127.667 514.7L126.98 387.76ZM602.475 632.278L665.616 579.296L664.918 450.234L601.777 503.216L602.475 632.278Z" transform="matrix(-0.6427875 -0.7660443 -0.7660443 0.6427875 1087.982 622.4615)" id="path_1" />
    <clipPath id="clip_1">
      <use xlink:href="#path_1" />
    </clipPath>
  </defs>
  <g id="img-review-bg">
    <g clip-path="url(#clip_1)">
      <use xlink:href="#path_1" fill="none" stroke="#FFFFFF" stroke-opacity="0.1459961" stroke-width="3" />
    </g>
  </g>
</svg>