<svg xmlns="http://www.w3.org/2000/svg" width="24" height="28.326" viewBox="0 0 24 28.326">
  <g id="prev" transform="translate(24 -0.014) rotate(90)">
    <g id="Combined_Shape" data-name="Combined Shape" transform="translate(0.014)" fill="none" stroke-miterlimit="10">
      <path d="M.055,12.023H0V0L14.107,11.976h.055V24Zm14.107,0L28.326,0V12.023Z" stroke="none"/>
      <path d="M 13.6624002456665 22.91989707946777 L 13.6624002456665 12.2545108795166 L 0.5000003576278687 1.080353498458862 L 0.5000003576278687 11.74490833282471 L 13.6624002456665 22.91989707946777 M 27.8257007598877 11.52310085296631 L 27.8257007598877 1.080310463905334 L 15.52401733398438 11.52310085296631 L 27.8257007598877 11.52310085296631 M 14.1624002456665 24.00030136108398 L 0.05512037873268127 12.02310085296631 L 3.799438559326518e-07 12.02310085296631 L 3.799438559326518e-07 6.805419729971618e-07 L 14.10727024078369 11.97630023956299 L 14.1624002456665 11.97630023956299 L 14.1624002456665 12.02310085296631 L 14.1624002456665 24.00030136108398 Z M 28.3257007598877 12.02310085296631 L 14.1624002456665 12.02310085296631 L 28.3257007598877 6.805419729971618e-07 L 28.3257007598877 12.02310085296631 Z" stroke="none" fill="#00171d"/>
    </g>
    <path id="Rectangle_Copy_6" data-name="Rectangle Copy 6" d="M14.163,0,0,12.343V0Z" transform="translate(14.177 11.657)"/>
  </g>
</svg>
